<svg width="320" height="25" viewBox="0 0 320 25" fill="none" xmlns="http://www.w3.org/2000/svg">
<path d="M45.6875 17V4.625H52.5725V6.755H48.1175V9.7325H52.3925V11.8625H48.1175V14.87H52.5725V17H45.6875ZM55.4524 17L60.4249 4.625H62.6824L67.6474 17H65.0299L63.9799 14.18H59.1199L58.0699 17H55.4524ZM59.9524 12.05H63.1549L61.5499 7.9025L59.9524 12.05ZM70.8415 17V4.625H75.0565C75.9015 4.625 76.634 4.775 77.254 5.075C77.879 5.37 78.3615 5.7975 78.7015 6.3575C79.0465 6.9125 79.219 7.5825 79.219 8.3675C79.219 8.9875 79.109 9.5475 78.889 10.0475C78.669 10.5425 78.354 10.96 77.944 11.3C77.534 11.64 77.0365 11.8925 76.4515 12.0575L80.5015 17H77.419L73.849 12.335H73.2715V17H70.8415ZM73.2715 10.31H74.3065C74.8115 10.31 75.239 10.2375 75.589 10.0925C75.939 9.9475 76.2065 9.735 76.3915 9.455C76.5815 9.17 76.6765 8.83 76.6765 8.435C76.6765 7.835 76.469 7.375 76.054 7.055C75.644 6.73 75.0615 6.5675 74.3065 6.5675H73.2715V10.31ZM84.6678 17V6.77H81.5328V4.625H90.2328V6.77H87.0903V17H84.6678ZM93.5639 17V4.625H95.9939V9.7325H100.621V4.625H103.044V17H100.621V11.8625H95.9939V17H93.5639Z" fill="white"/>
<circle cx="10" cy="12" r="10" fill="#545BFE"/>
<path opacity="0.4" d="M315 8L319 12L315 16" stroke="white"/>
</svg>
