<svg width="320" height="25" viewBox="0 0 320 25" fill="none" xmlns="http://www.w3.org/2000/svg">
<path d="M47.2475 17.24C46.0975 17.24 45.1075 16.85 44.2775 16.07L45.0875 14.06C45.7025 14.63 46.2925 14.915 46.8575 14.915C47.3775 14.915 47.7825 14.735 48.0725 14.375C48.3675 14.015 48.515 13.52 48.515 12.89V4.625H50.945V13.52C50.945 14.7 50.6175 15.615 49.9625 16.265C49.3075 16.915 48.4025 17.24 47.2475 17.24ZM60.0472 17.24C58.4972 17.24 57.3247 16.8525 56.5297 16.0775C55.7347 15.2975 55.3372 14.1425 55.3372 12.6125V4.625H57.7672V11.915C57.7672 12.96 57.9447 13.7125 58.2997 14.1725C58.6597 14.6275 59.2422 14.855 60.0472 14.855C60.8522 14.855 61.4322 14.6275 61.7872 14.1725C62.1472 13.7125 62.3272 12.96 62.3272 11.915V4.625H64.7572V12.6125C64.7572 14.1425 64.3597 15.2975 63.5647 16.0775C62.7747 16.8525 61.6022 17.24 60.0472 17.24ZM69.2888 17V4.625H73.5038C74.3088 4.625 75.0238 4.765 75.6488 5.045C76.2738 5.325 76.7663 5.7425 77.1263 6.2975C77.4863 6.8475 77.6663 7.535 77.6663 8.36C77.6663 9.18 77.4863 9.88 77.1263 10.46C76.7663 11.04 76.2738 11.485 75.6488 11.795C75.0238 12.1 74.3088 12.2525 73.5038 12.2525H71.7188V17H69.2888ZM71.7188 10.31H72.7538C73.1788 10.31 73.5688 10.2475 73.9238 10.1225C74.2838 9.9975 74.5738 9.7975 74.7938 9.5225C75.0138 9.2475 75.1238 8.885 75.1238 8.435C75.1238 7.98 75.0138 7.6175 74.7938 7.3475C74.5738 7.0725 74.2838 6.875 73.9238 6.755C73.5688 6.63 73.1788 6.5675 72.7538 6.5675H71.7188V10.31ZM81.2725 17V4.625H83.7025V17H81.2725ZM89.4738 17V6.77H86.3388V4.625H95.0388V6.77H91.8963V17H89.4738ZM98.3699 17V4.625H105.255V6.755H100.8V9.7325H105.075V11.8625H100.8V14.87H105.255V17H98.3699ZM109.592 17V4.625H113.807C114.652 4.625 115.384 4.775 116.004 5.075C116.629 5.37 117.112 5.7975 117.452 6.3575C117.797 6.9125 117.969 7.5825 117.969 8.3675C117.969 8.9875 117.859 9.5475 117.639 10.0475C117.419 10.5425 117.104 10.96 116.694 11.3C116.284 11.64 115.787 11.8925 115.202 12.0575L119.252 17H116.169L112.599 12.335H112.022V17H109.592ZM112.022 10.31H113.057C113.562 10.31 113.989 10.2375 114.339 10.0925C114.689 9.9475 114.957 9.735 115.142 9.455C115.332 9.17 115.427 8.83 115.427 8.435C115.427 7.835 115.219 7.375 114.804 7.055C114.394 6.73 113.812 6.5675 113.057 6.5675H112.022V10.31Z" fill="white"/>
<circle cx="10" cy="12" r="10" fill="#ECAD7A"/>
<path opacity="0.4" d="M315 8L319 12L315 16" stroke="white"/>
</svg>
