<svg width="320" height="25" viewBox="0 0 320 25" fill="none" xmlns="http://www.w3.org/2000/svg">
<path d="M45.1175 17L46.3475 4.625H48.9275L51.8825 12.365L54.8375 4.625H57.4175L58.6475 17H56.2175L55.4525 8.99L52.625 16.6925H51.1325L48.3125 8.99L47.54 17H45.1175ZM61.2679 17L66.2404 4.625H68.4979L73.4629 17H70.8454L69.7954 14.18H64.9354L63.8854 17H61.2679ZM65.7679 12.05H68.9704L67.3654 7.9025L65.7679 12.05ZM76.657 17V4.625H80.872C81.717 4.625 82.4495 4.775 83.0695 5.075C83.6945 5.37 84.177 5.7975 84.517 6.3575C84.862 6.9125 85.0345 7.5825 85.0345 8.3675C85.0345 8.9875 84.9245 9.5475 84.7045 10.0475C84.4845 10.5425 84.1695 10.96 83.7595 11.3C83.3495 11.64 82.852 11.8925 82.267 12.0575L86.317 17H83.2345L79.6645 12.335H79.087V17H76.657ZM79.087 10.31H80.122C80.627 10.31 81.0545 10.2375 81.4045 10.0925C81.7545 9.9475 82.022 9.735 82.207 9.455C82.397 9.17 82.492 8.83 82.492 8.435C82.492 7.835 82.2845 7.375 81.8695 7.055C81.4595 6.73 80.877 6.5675 80.122 6.5675H79.087V10.31ZM92.5688 17.24C91.9938 17.24 91.4638 17.175 90.9788 17.045C90.4938 16.92 90.0588 16.7625 89.6738 16.5725C89.2938 16.3775 88.9663 16.1775 88.6913 15.9725C88.4163 15.7675 88.1988 15.5875 88.0388 15.4325L89.2838 13.4225C89.4488 13.5675 89.6463 13.73 89.8763 13.91C90.1063 14.09 90.3638 14.2625 90.6488 14.4275C90.9338 14.5875 91.2413 14.7225 91.5713 14.8325C91.9063 14.9375 92.2613 14.99 92.6363 14.99C92.9863 14.99 93.2938 14.935 93.5588 14.825C93.8288 14.715 94.0413 14.5525 94.1963 14.3375C94.3513 14.1175 94.4288 13.845 94.4288 13.52C94.4288 13.225 94.3663 12.975 94.2413 12.77C94.1163 12.56 93.9313 12.3725 93.6863 12.2075C93.4463 12.0375 93.1488 11.8725 92.7938 11.7125C92.4438 11.5475 92.0438 11.3675 91.5938 11.1725C91.2588 11.0225 90.9388 10.8525 90.6338 10.6625C90.3338 10.4675 90.0663 10.2425 89.8313 9.9875C89.5963 9.7325 89.4088 9.445 89.2688 9.125C89.1338 8.8 89.0663 8.4375 89.0663 8.0375C89.0663 7.5625 89.1613 7.1075 89.3513 6.6725C89.5413 6.2375 89.8113 5.85 90.1613 5.51C90.5163 5.17 90.9363 4.9 91.4213 4.7C91.9113 4.5 92.4563 4.4 93.0563 4.4C93.5063 4.4 93.9563 4.46 94.4063 4.58C94.8563 4.7 95.2763 4.8575 95.6663 5.0525C96.0563 5.2475 96.3863 5.46 96.6563 5.69L95.6438 7.595C95.4288 7.41 95.1838 7.245 94.9088 7.1C94.6388 6.95 94.3488 6.83 94.0388 6.74C93.7338 6.65 93.4238 6.605 93.1088 6.605C92.7538 6.605 92.4513 6.6675 92.2013 6.7925C91.9563 6.9175 91.7663 7.085 91.6313 7.295C91.5013 7.5 91.4363 7.73 91.4363 7.985C91.4363 8.195 91.4788 8.375 91.5638 8.525C91.6538 8.67 91.7788 8.7975 91.9388 8.9075C92.0988 9.0125 92.2913 9.115 92.5163 9.215C92.7413 9.31 92.9888 9.4125 93.2588 9.5225C93.8388 9.7675 94.3638 10.01 94.8338 10.25C95.3038 10.49 95.7063 10.7575 96.0413 11.0525C96.3763 11.3425 96.6313 11.6825 96.8063 12.0725C96.9863 12.4625 97.0763 12.9275 97.0763 13.4675C97.0763 14.2575 96.8863 14.935 96.5063 15.5C96.1313 16.065 95.6063 16.4975 94.9313 16.7975C94.2563 17.0925 93.4688 17.24 92.5688 17.24Z" fill="white"/>
<circle cx="10" cy="12" r="10" fill="#FF6A45"/>
<path opacity="0.4" d="M315 8L319 12L315 16" stroke="white"/>
</svg>
