<svg width="320" height="25" viewBox="0 0 320 25" fill="none" xmlns="http://www.w3.org/2000/svg">
<g clip-path="url(#clip0_0_2207)">
<path d="M46.4597 17L47.6897 4.625H50.2697L53.2247 12.365L56.1797 4.625H58.7597L59.9897 17H57.5597L56.7947 8.99L53.9672 16.6925H52.4747L49.6547 8.99L48.8822 17H46.4597ZM64.1551 17V4.625H71.0401V6.755H66.5851V9.7325H70.8601V11.8625H66.5851V14.87H71.0401V17H64.1551ZM75.3771 17V4.625H79.5921C80.4371 4.625 81.1696 4.775 81.7896 5.075C82.4146 5.37 82.8971 5.7975 83.2371 6.3575C83.5821 6.9125 83.7546 7.5825 83.7546 8.3675C83.7546 8.9875 83.6446 9.5475 83.4246 10.0475C83.2046 10.5425 82.8896 10.96 82.4796 11.3C82.0696 11.64 81.5721 11.8925 80.9871 12.0575L85.0371 17H81.9546L78.3846 12.335H77.8071V17H75.3771ZM77.8071 10.31H78.8421C79.3471 10.31 79.7746 10.2375 80.1246 10.0925C80.4746 9.9475 80.7421 9.735 80.9271 9.455C81.1171 9.17 81.2121 8.83 81.2121 8.435C81.2121 7.835 81.0046 7.375 80.5896 7.055C80.1796 6.73 79.5971 6.5675 78.8421 6.5675H77.8071V10.31ZM93.6365 17.24C92.7015 17.24 91.824 17.075 91.004 16.745C90.184 16.415 89.4615 15.9575 88.8365 15.3725C88.2115 14.7825 87.724 14.1 87.374 13.325C87.024 12.55 86.849 11.7175 86.849 10.8275C86.849 9.9325 87.024 9.0975 87.374 8.3225C87.729 7.5425 88.2165 6.86 88.8365 6.275C89.4615 5.685 90.1815 5.225 90.9965 4.895C91.8165 4.565 92.6915 4.4 93.6215 4.4C94.3815 4.4 95.104 4.5075 95.789 4.7225C96.479 4.9375 97.069 5.22 97.559 5.57L96.509 7.6325C96.174 7.3675 95.7665 7.16 95.2865 7.01C94.8065 6.86 94.304 6.785 93.779 6.785C93.164 6.785 92.594 6.8875 92.069 7.0925C91.549 7.2975 91.094 7.5825 90.704 7.9475C90.319 8.3125 90.019 8.74 89.804 9.23C89.589 9.72 89.4815 10.25 89.4815 10.82C89.4815 11.39 89.589 11.92 89.804 12.41C90.019 12.9 90.319 13.3275 90.704 13.6925C91.094 14.0575 91.549 14.3425 92.069 14.5475C92.594 14.7525 93.164 14.855 93.779 14.855C94.304 14.855 94.8065 14.78 95.2865 14.63C95.7665 14.48 96.174 14.2725 96.509 14.0075L97.559 16.07C97.089 16.41 96.5115 16.69 95.8265 16.91C95.1415 17.13 94.4115 17.24 93.6365 17.24ZM105.397 17.24C103.847 17.24 102.675 16.8525 101.88 16.0775C101.085 15.2975 100.687 14.1425 100.687 12.6125V4.625H103.117V11.915C103.117 12.96 103.295 13.7125 103.65 14.1725C104.01 14.6275 104.592 14.855 105.397 14.855C106.202 14.855 106.782 14.6275 107.137 14.1725C107.497 13.7125 107.677 12.96 107.677 11.915V4.625H110.107V12.6125C110.107 14.1425 109.71 15.2975 108.915 16.0775C108.125 16.8525 106.952 17.24 105.397 17.24ZM114.639 17V4.625H118.854C119.699 4.625 120.431 4.775 121.051 5.075C121.676 5.37 122.159 5.7975 122.499 6.3575C122.844 6.9125 123.016 7.5825 123.016 8.3675C123.016 8.9875 122.906 9.5475 122.686 10.0475C122.466 10.5425 122.151 10.96 121.741 11.3C121.331 11.64 120.834 11.8925 120.249 12.0575L124.299 17H121.216L117.646 12.335H117.069V17H114.639ZM117.069 10.31H118.104C118.609 10.31 119.036 10.2375 119.386 10.0925C119.736 9.9475 120.004 9.735 120.189 9.455C120.379 9.17 120.474 8.83 120.474 8.435C120.474 7.835 120.266 7.375 119.851 7.055C119.441 6.73 118.859 6.5675 118.104 6.5675H117.069V10.31ZM128.761 17V11.4875L124.268 4.625H127.193L129.976 9.0125L132.758 4.625H135.683L131.191 11.4875V17H128.761Z" fill="white"/>
<circle cx="10" cy="12" r="10" fill="#DEF4FC"/>
</g>
<path opacity="0.4" d="M315 8L319 12L315 16" stroke="white"/>
<defs>
<clipPath id="clip0_0_2207">
<rect width="136" height="25" fill="white"/>
</clipPath>
</defs>
</svg>
