<svg width="320" height="25" viewBox="0 0 320 25" fill="none" xmlns="http://www.w3.org/2000/svg">
<path d="M45.6875 17V4.625H48.1175L53.45 12.95V4.625H55.88V17H53.45L48.1175 8.675V17H45.6875ZM60.6156 17V4.625H67.5006V6.755H63.0456V9.7325H67.3206V11.8625H63.0456V14.87H67.5006V17H60.6156ZM71.8376 17V4.625H76.0526C76.8576 4.625 77.5726 4.765 78.1976 5.045C78.8226 5.325 79.3151 5.7425 79.6751 6.2975C80.0351 6.8475 80.2151 7.535 80.2151 8.36C80.2151 9.18 80.0351 9.88 79.6751 10.46C79.3151 11.04 78.8226 11.485 78.1976 11.795C77.5726 12.1 76.8576 12.2525 76.0526 12.2525H74.2676V17H71.8376ZM74.2676 10.31H75.3026C75.7276 10.31 76.1176 10.2475 76.4726 10.1225C76.8326 9.9975 77.1226 9.7975 77.3426 9.5225C77.5626 9.2475 77.6726 8.885 77.6726 8.435C77.6726 7.98 77.5626 7.6175 77.3426 7.3475C77.1226 7.0725 76.8326 6.875 76.4726 6.755C76.1176 6.63 75.7276 6.5675 75.3026 6.5675H74.2676V10.31ZM84.8436 17V6.77H81.7086V4.625H90.4086V6.77H87.2661V17H84.8436ZM98.2397 17.24C96.6897 17.24 95.5172 16.8525 94.7222 16.0775C93.9272 15.2975 93.5297 14.1425 93.5297 12.6125V4.625H95.9597V11.915C95.9597 12.96 96.1372 13.7125 96.4922 14.1725C96.8522 14.6275 97.4347 14.855 98.2397 14.855C99.0447 14.855 99.6247 14.6275 99.9797 14.1725C100.34 13.7125 100.52 12.96 100.52 11.915V4.625H102.95V12.6125C102.95 14.1425 102.552 15.2975 101.757 16.0775C100.967 16.8525 99.7947 17.24 98.2397 17.24ZM107.481 17V4.625H109.911L115.244 12.95V4.625H117.674V17H115.244L109.911 8.675V17H107.481ZM122.409 17V4.625H129.294V6.755H124.839V9.7325H129.114V11.8625H124.839V14.87H129.294V17H122.409Z" fill="white"/>
<circle cx="10" cy="12" r="10" fill="#497EFA"/>
<path opacity="0.4" d="M315 8L319 12L315 16" stroke="white"/>
</svg>
