<svg width="320" height="25" viewBox="0 0 320 25" fill="none" xmlns="http://www.w3.org/2000/svg">
<path d="M48.9125 17.24C48.3375 17.24 47.8075 17.175 47.3225 17.045C46.8375 16.92 46.4025 16.7625 46.0175 16.5725C45.6375 16.3775 45.31 16.1775 45.035 15.9725C44.76 15.7675 44.5425 15.5875 44.3825 15.4325L45.6275 13.4225C45.7925 13.5675 45.99 13.73 46.22 13.91C46.45 14.09 46.7075 14.2625 46.9925 14.4275C47.2775 14.5875 47.585 14.7225 47.915 14.8325C48.25 14.9375 48.605 14.99 48.98 14.99C49.33 14.99 49.6375 14.935 49.9025 14.825C50.1725 14.715 50.385 14.5525 50.54 14.3375C50.695 14.1175 50.7725 13.845 50.7725 13.52C50.7725 13.225 50.71 12.975 50.585 12.77C50.46 12.56 50.275 12.3725 50.03 12.2075C49.79 12.0375 49.4925 11.8725 49.1375 11.7125C48.7875 11.5475 48.3875 11.3675 47.9375 11.1725C47.6025 11.0225 47.2825 10.8525 46.9775 10.6625C46.6775 10.4675 46.41 10.2425 46.175 9.9875C45.94 9.7325 45.7525 9.445 45.6125 9.125C45.4775 8.8 45.41 8.4375 45.41 8.0375C45.41 7.5625 45.505 7.1075 45.695 6.6725C45.885 6.2375 46.155 5.85 46.505 5.51C46.86 5.17 47.28 4.9 47.765 4.7C48.255 4.5 48.8 4.4 49.4 4.4C49.85 4.4 50.3 4.46 50.75 4.58C51.2 4.7 51.62 4.8575 52.01 5.0525C52.4 5.2475 52.73 5.46 53 5.69L51.9875 7.595C51.7725 7.41 51.5275 7.245 51.2525 7.1C50.9825 6.95 50.6925 6.83 50.3825 6.74C50.0775 6.65 49.7675 6.605 49.4525 6.605C49.0975 6.605 48.795 6.6675 48.545 6.7925C48.3 6.9175 48.11 7.085 47.975 7.295C47.845 7.5 47.78 7.73 47.78 7.985C47.78 8.195 47.8225 8.375 47.9075 8.525C47.9975 8.67 48.1225 8.7975 48.2825 8.9075C48.4425 9.0125 48.635 9.115 48.86 9.215C49.085 9.31 49.3325 9.4125 49.6025 9.5225C50.1825 9.7675 50.7075 10.01 51.1775 10.25C51.6475 10.49 52.05 10.7575 52.385 11.0525C52.72 11.3425 52.975 11.6825 53.15 12.0725C53.33 12.4625 53.42 12.9275 53.42 13.4675C53.42 14.2575 53.23 14.935 52.85 15.5C52.475 16.065 51.95 16.4975 51.275 16.7975C50.6 17.0925 49.8125 17.24 48.9125 17.24ZM55.7307 17L60.7032 4.625H62.9607L67.9257 17H65.3082L64.2582 14.18H59.3982L58.3482 17H55.7307ZM60.2307 12.05H63.4332L61.8282 7.9025L60.2307 12.05ZM72.1421 17V6.77H69.0071V4.625H77.7071V6.77H74.5646V17H72.1421ZM85.5382 17.24C83.9882 17.24 82.8157 16.8525 82.0207 16.0775C81.2257 15.2975 80.8282 14.1425 80.8282 12.6125V4.625H83.2582V11.915C83.2582 12.96 83.4357 13.7125 83.7907 14.1725C84.1507 14.6275 84.7332 14.855 85.5382 14.855C86.3432 14.855 86.9232 14.6275 87.2782 14.1725C87.6382 13.7125 87.8182 12.96 87.8182 11.915V4.625H90.2482V12.6125C90.2482 14.1425 89.8507 15.2975 89.0557 16.0775C88.2657 16.8525 87.0932 17.24 85.5382 17.24ZM94.7797 17V4.625H98.9947C99.8397 4.625 100.572 4.775 101.192 5.075C101.817 5.37 102.3 5.7975 102.64 6.3575C102.985 6.9125 103.157 7.5825 103.157 8.3675C103.157 8.9875 103.047 9.5475 102.827 10.0475C102.607 10.5425 102.292 10.96 101.882 11.3C101.472 11.64 100.975 11.8925 100.39 12.0575L104.44 17H101.357L97.7872 12.335H97.2097V17H94.7797ZM97.2097 10.31H98.2447C98.7497 10.31 99.1772 10.2375 99.5272 10.0925C99.8772 9.9475 100.145 9.735 100.33 9.455C100.52 9.17 100.615 8.83 100.615 8.435C100.615 7.835 100.407 7.375 99.9922 7.055C99.5822 6.73 98.9997 6.5675 98.2447 6.5675H97.2097V10.31ZM107.467 17V4.625H109.897L115.229 12.95V4.625H117.659V17H115.229L109.897 8.675V17H107.467Z" fill="white"/>
<circle cx="10" cy="12" r="10" fill="#FCCB6B"/>
<path opacity="0.4" d="M315 8L319 12L315 16" stroke="white"/>
</svg>
