<svg width="320" height="25" viewBox="0 0 320 25" fill="none" xmlns="http://www.w3.org/2000/svg">
<path d="M50.1875 17.24C48.6375 17.24 47.465 16.8525 46.67 16.0775C45.875 15.2975 45.4775 14.1425 45.4775 12.6125V4.625H47.9075V11.915C47.9075 12.96 48.085 13.7125 48.44 14.1725C48.8 14.6275 49.3825 14.855 50.1875 14.855C50.9925 14.855 51.5725 14.6275 51.9275 14.1725C52.2875 13.7125 52.4675 12.96 52.4675 11.915V4.625H54.8975V12.6125C54.8975 14.1425 54.5 15.2975 53.705 16.0775C52.915 16.8525 51.7425 17.24 50.1875 17.24ZM59.4291 17V4.625H63.6441C64.4891 4.625 65.2216 4.775 65.8416 5.075C66.4666 5.37 66.9491 5.7975 67.2891 6.3575C67.6341 6.9125 67.8066 7.5825 67.8066 8.3675C67.8066 8.9875 67.6966 9.5475 67.4766 10.0475C67.2566 10.5425 66.9416 10.96 66.5316 11.3C66.1216 11.64 65.6241 11.8925 65.0391 12.0575L69.0891 17H66.0066L62.4366 12.335H61.8591V17H59.4291ZM61.8591 10.31H62.8941C63.3991 10.31 63.8266 10.2375 64.1766 10.0925C64.5266 9.9475 64.7941 9.735 64.9791 9.455C65.1691 9.17 65.2641 8.83 65.2641 8.435C65.2641 7.835 65.0566 7.375 64.6416 7.055C64.2316 6.73 63.6491 6.5675 62.8941 6.5675H61.8591V10.31ZM70.5709 17L75.5434 4.625H77.8009L82.7659 17H80.1484L79.0984 14.18H74.2384L73.1884 17H70.5709ZM75.0709 12.05H78.2734L76.6684 7.9025L75.0709 12.05ZM85.96 17V4.625H88.39L93.7225 12.95V4.625H96.1525V17H93.7225L88.39 8.675V17H85.96ZM105.388 17.24C103.838 17.24 102.666 16.8525 101.871 16.0775C101.076 15.2975 100.678 14.1425 100.678 12.6125V4.625H103.108V11.915C103.108 12.96 103.286 13.7125 103.641 14.1725C104.001 14.6275 104.583 14.855 105.388 14.855C106.193 14.855 106.773 14.6275 107.128 14.1725C107.488 13.7125 107.668 12.96 107.668 11.915V4.625H110.098V12.6125C110.098 14.1425 109.701 15.2975 108.906 16.0775C108.116 16.8525 106.943 17.24 105.388 17.24ZM117.562 17.24C116.987 17.24 116.457 17.175 115.972 17.045C115.487 16.92 115.052 16.7625 114.667 16.5725C114.287 16.3775 113.959 16.1775 113.684 15.9725C113.409 15.7675 113.192 15.5875 113.032 15.4325L114.277 13.4225C114.442 13.5675 114.639 13.73 114.869 13.91C115.099 14.09 115.357 14.2625 115.642 14.4275C115.927 14.5875 116.234 14.7225 116.564 14.8325C116.899 14.9375 117.254 14.99 117.629 14.99C117.979 14.99 118.287 14.935 118.552 14.825C118.822 14.715 119.034 14.5525 119.189 14.3375C119.344 14.1175 119.422 13.845 119.422 13.52C119.422 13.225 119.359 12.975 119.234 12.77C119.109 12.56 118.924 12.3725 118.679 12.2075C118.439 12.0375 118.142 11.8725 117.787 11.7125C117.437 11.5475 117.037 11.3675 116.587 11.1725C116.252 11.0225 115.932 10.8525 115.627 10.6625C115.327 10.4675 115.059 10.2425 114.824 9.9875C114.589 9.7325 114.402 9.445 114.262 9.125C114.127 8.8 114.059 8.4375 114.059 8.0375C114.059 7.5625 114.154 7.1075 114.344 6.6725C114.534 6.2375 114.804 5.85 115.154 5.51C115.509 5.17 115.929 4.9 116.414 4.7C116.904 4.5 117.449 4.4 118.049 4.4C118.499 4.4 118.949 4.46 119.399 4.58C119.849 4.7 120.269 4.8575 120.659 5.0525C121.049 5.2475 121.379 5.46 121.649 5.69L120.637 7.595C120.422 7.41 120.177 7.245 119.902 7.1C119.632 6.95 119.342 6.83 119.032 6.74C118.727 6.65 118.417 6.605 118.102 6.605C117.747 6.605 117.444 6.6675 117.194 6.7925C116.949 6.9175 116.759 7.085 116.624 7.295C116.494 7.5 116.429 7.73 116.429 7.985C116.429 8.195 116.472 8.375 116.557 8.525C116.647 8.67 116.772 8.7975 116.932 8.9075C117.092 9.0125 117.284 9.115 117.509 9.215C117.734 9.31 117.982 9.4125 118.252 9.5225C118.832 9.7675 119.357 10.01 119.827 10.25C120.297 10.49 120.699 10.7575 121.034 11.0525C121.369 11.3425 121.624 11.6825 121.799 12.0725C121.979 12.4625 122.069 12.9275 122.069 13.4675C122.069 14.2575 121.879 14.935 121.499 15.5C121.124 16.065 120.599 16.4975 119.924 16.7975C119.249 17.0925 118.462 17.24 117.562 17.24Z" fill="white"/>
<circle cx="10" cy="12" r="10" fill="#65F0D5"/>
<path opacity="0.4" d="M315 8L319 12L315 16" stroke="white"/>
</svg>
