<svg width="320" height="25" viewBox="0 0 320 25" fill="none" xmlns="http://www.w3.org/2000/svg">
<path d="M49.3175 17L44.1275 4.625H46.8725L50.27 13.3475L53.675 4.625H56.4125L51.2225 17H49.3175ZM59.5902 17V4.625H66.4752V6.755H62.0202V9.7325H66.2952V11.8625H62.0202V14.87H66.4752V17H59.5902ZM70.8122 17V4.625H73.2422L78.5747 12.95V4.625H81.0047V17H78.5747L73.2422 8.675V17H70.8122ZM90.2403 17.24C88.6903 17.24 87.5178 16.8525 86.7228 16.0775C85.9278 15.2975 85.5303 14.1425 85.5303 12.6125V4.625H87.9603V11.915C87.9603 12.96 88.1378 13.7125 88.4928 14.1725C88.8528 14.6275 89.4353 14.855 90.2403 14.855C91.0453 14.855 91.6253 14.6275 91.9803 14.1725C92.3403 13.7125 92.5203 12.96 92.5203 11.915V4.625H94.9503V12.6125C94.9503 14.1425 94.5528 15.2975 93.7578 16.0775C92.9678 16.8525 91.7953 17.24 90.2403 17.24ZM102.414 17.24C101.839 17.24 101.309 17.175 100.824 17.045C100.339 16.92 99.9039 16.7625 99.5189 16.5725C99.1389 16.3775 98.8114 16.1775 98.5364 15.9725C98.2614 15.7675 98.0439 15.5875 97.8839 15.4325L99.1289 13.4225C99.2939 13.5675 99.4914 13.73 99.7214 13.91C99.9514 14.09 100.209 14.2625 100.494 14.4275C100.779 14.5875 101.086 14.7225 101.416 14.8325C101.751 14.9375 102.106 14.99 102.481 14.99C102.831 14.99 103.139 14.935 103.404 14.825C103.674 14.715 103.886 14.5525 104.041 14.3375C104.196 14.1175 104.274 13.845 104.274 13.52C104.274 13.225 104.211 12.975 104.086 12.77C103.961 12.56 103.776 12.3725 103.531 12.2075C103.291 12.0375 102.994 11.8725 102.639 11.7125C102.289 11.5475 101.889 11.3675 101.439 11.1725C101.104 11.0225 100.784 10.8525 100.479 10.6625C100.179 10.4675 99.9114 10.2425 99.6764 9.9875C99.4414 9.7325 99.2539 9.445 99.1139 9.125C98.9789 8.8 98.9114 8.4375 98.9114 8.0375C98.9114 7.5625 99.0064 7.1075 99.1964 6.6725C99.3864 6.2375 99.6564 5.85 100.006 5.51C100.361 5.17 100.781 4.9 101.266 4.7C101.756 4.5 102.301 4.4 102.901 4.4C103.351 4.4 103.801 4.46 104.251 4.58C104.701 4.7 105.121 4.8575 105.511 5.0525C105.901 5.2475 106.231 5.46 106.501 5.69L105.489 7.595C105.274 7.41 105.029 7.245 104.754 7.1C104.484 6.95 104.194 6.83 103.884 6.74C103.579 6.65 103.269 6.605 102.954 6.605C102.599 6.605 102.296 6.6675 102.046 6.7925C101.801 6.9175 101.611 7.085 101.476 7.295C101.346 7.5 101.281 7.73 101.281 7.985C101.281 8.195 101.324 8.375 101.409 8.525C101.499 8.67 101.624 8.7975 101.784 8.9075C101.944 9.0125 102.136 9.115 102.361 9.215C102.586 9.31 102.834 9.4125 103.104 9.5225C103.684 9.7675 104.209 10.01 104.679 10.25C105.149 10.49 105.551 10.7575 105.886 11.0525C106.221 11.3425 106.476 11.6825 106.651 12.0725C106.831 12.4625 106.921 12.9275 106.921 13.4675C106.921 14.2575 106.731 14.935 106.351 15.5C105.976 16.065 105.451 16.4975 104.776 16.7975C104.101 17.0925 103.314 17.24 102.414 17.24Z" fill="white"/>
<circle cx="10" cy="12" r="10" fill="#F7CC7F"/>
<path opacity="0.4" d="M315 8L319 12L315 16" stroke="white"/>
</svg>
